HIERARCHY
ROOT Hips
{
 OFFSET 0.000000 0.000000 0.000000
 CHANNELS 6 Xposition Yposition Zposition Yrotation Xrotation Zrotation
 JOINT Chest
 {
  OFFSET 0.000000 9.585900 0.002600
  CHANNELS 3 Yrotation Xrotation Zrotation
  JOINT Chest2
  {
   OFFSET 0.000000 9.601200 -0.005300
   CHANNELS 3 Yrotation Xrotation Zrotation
   JOINT Chest3
   {
    OFFSET 0.000000 9.561800 0.000000
    CHANNELS 3 Yrotation Xrotation Zrotation
    JOINT Chest4
    {
     OFFSET 0.000000 9.552100 0.000000
     CHANNELS 3 Yrotation Xrotation Zrotation
     JOINT Neck
     {
      OFFSET 0.000000 14.453000 0.000000
      CHANNELS 3 Yrotation Xrotation Zrotation
      JOINT Head
      {
       OFFSET 0.000000 8.936500 -0.011300
       CHANNELS 3 Yrotation Xrotation Zrotation
       End Site
       {
        OFFSET 0.000000 17.073600 -0.006000
       }
      }
     }
     JOINT RightCollar
     {
      OFFSET -2.921100 9.558500 0.000000
      CHANNELS 3 Yrotation Xrotation Zrotation
      JOINT RightShoulder
      {
       OFFSET -13.519700 0.000000 0.000000
       CHANNELS 3 Yrotation Xrotation Zrotation
       JOINT RightElbow
       {
        OFFSET 0.000000 -29.696600 0.000000
        CHANNELS 3 Yrotation Xrotation Zrotation
        JOINT RightWrist
        {
         OFFSET 0.000000 -24.004700 0.000000
         CHANNELS 3 Yrotation Xrotation Zrotation
         End Site
         {
          OFFSET 0.000000 -17.728500 0.000000
         }
        }
       }
      }
     }
     JOINT LeftCollar
     {
      OFFSET 2.921100 9.558500 0.000000
      CHANNELS 3 Yrotation Xrotation Zrotation
      JOINT LeftShoulder
      {
       OFFSET 13.519700 0.000000 0.000000
       CHANNELS 3 Yrotation Xrotation Zrotation
       JOINT LeftElbow
       {
        OFFSET 0.000000 -29.696600 0.000000
        CHANNELS 3 Yrotation Xrotation Zrotation
        JOINT LeftWrist
        {
         OFFSET 0.000000 -24.004700 0.000000
         CHANNELS 3 Yrotation Xrotation Zrotation
         End Site
         {
          OFFSET 0.000000 -17.728500 0.000000
         }
        }
       }
      }
     }
    }
   }
  }
 }
 JOINT RightHip
 {
  OFFSET -7.771700 -0.012900 -0.001300
  CHANNELS 3 Yrotation Xrotation Zrotation
  JOINT RightKnee
  {
   OFFSET 0.000000 -40.869800 0.001200
   CHANNELS 3 Yrotation Xrotation Zrotation
   JOINT RightAnkle
   {
    OFFSET 0.000000 -39.717900 0.002100
    CHANNELS 3 Yrotation Xrotation Zrotation
    JOINT RightToe
    {
     OFFSET 0.000000 -4.965400 11.033500
     CHANNELS 3 Yrotation Xrotation Zrotation
     End Site
     {
      OFFSET 0.000000 -1.423100 5.872300
     }
    }
   }
  }
 }
 JOINT LeftHip
 {
  OFFSET 7.771700 -0.012900 -0.001300
  CHANNELS 3 Yrotation Xrotation Zrotation
  JOINT LeftKnee
  {
   OFFSET 0.000000 -40.869800 0.001200
   CHANNELS 3 Yrotation Xrotation Zrotation
   JOINT LeftAnkle
   {
    OFFSET 0.000000 -39.717900 0.002100
    CHANNELS 3 Yrotation Xrotation Zrotation
    JOINT LeftToe
    {
     OFFSET 0.000000 -4.965400 11.033500
     CHANNELS 3 Yrotation Xrotation Zrotation
     End Site
     {
      OFFSET 0.000000 -1.423100 5.872300
     }
    }
   }
  }
 }
}
MOTION
Frames: 5
Frame Time: 0.008333
0.000000 85.388000 0.000000 0.000000 -5.767877 0.000000 0.000000 11.653817 0.000000 0.000000 -5.885947 0.000000 0.000000 -0.000000 0.000000 0.000000 -0.000000 0.000000 0.000000 12.528835 0.000000 0.000000 0.711642 0.000000 0.000000 -0.000000 0.000000 0.000000 0.000000 -90.000000 0.000000 -2.309062 0.000000 0.000000 2.309062 0.000000 0.000000 -0.000000 0.000000 0.000000 -0.000000 90.000000 0.000000 -2.309062 0.000000 0.000000 2.309062 0.000000 0.000000 8.520406 0.000000 0.000000 1.905762 0.000000 -0.000000 -4.658285 0.000000 0.000000 -0.000000 0.000000 0.000000 8.520406 0.000000 0.000000 1.905762 0.000000 -0.000000 -4.658285 0.000000 0.000000 -0.000000 0.000000
-31.092228 50.744001 36.801691 -168.426797 -30.441295 -7.993508 -3.772761 14.321004 2.828318 -2.142210 8.076381 1.611679 -2.717580 10.286521 1.902111 -2.169378 8.158394 1.581499 2.171148 20.052239 -0.496851 2.425117 -4.454850 -1.024301 4.025368 -3.008113 -3.735523 2.798070 -22.640424 -0.401626 57.212216 -32.549136 -37.572099 8.522828 5.313562 -10.944183 -12.247186 0.489786 -4.358782 -7.412761 -19.602641 4.528599 -59.844945 -35.717512 53.788312 -1.352880 -5.173047 -3.603697 -22.683995 -27.040803 0.953674 39.495705 86.828465 36.554278 -0.061327 -25.724049 -2.262893 -0.004891 0.249992 0.015745 -12.886876 -47.538750 0.543105 175.305662 70.474695 173.421730 -0.402274 -27.164261 0.317376 -0.032485 -0.161207 -0.037900
-31.066506 51.063996 36.805778 -168.341263 -30.306945 -8.191386 -3.847051 14.276414 2.969696 -2.138429 8.094031 1.604225 -2.722977 10.301573 1.895372 -2.170269 8.172924 1.574817 2.177392 19.994713 -0.518932 2.436354 -4.519805 -1.049052 4.031177 -3.021198 -3.773009 2.788212 -22.699491 -0.350713 57.169561 -32.625019 -37.556534 8.594665 5.553303 -10.415070 -12.221454 0.444718 -4.321265 -7.315446 -19.408563 4.464070 -60.082296 -35.862234 54.188069 -1.329284 -5.205880 -3.473777 -22.889258 -27.314205 1.199621 43.638807 87.124248 40.725476 -0.036515 -25.939630 -2.305590 -0.007965 0.314847 0.007979 -13.161733 -47.400691 0.799318 175.238117 70.783643 173.379945 -0.343489 -26.837040 0.294722 -0.068935 -0.406022 -0.054048
-31.039986 51.413191 36.811348 -168.249032 -30.156325 -8.401350 -3.930267 14.216079 3.120239 -2.163267 8.168195 1.575551 -2.696167 10.262897 1.908502 -2.144612 8.134424 1.589072 2.150949 19.992128 -0.557018 2.448704 -4.582969 -1.073995 4.016358 -3.004864 -3.816121 2.784597 -22.734264 -0.313899 57.138456 -32.700205 -37.543883 8.744344 5.801921 -9.990769 -12.257281 0.518100 -4.339140 -7.193243 -19.269954 4.439785 -60.316752 -36.015178 54.597964 -1.296876 -5.263797 -3.315443 -23.126975 -27.565757 1.452923 48.050631 87.350447 45.163673 -0.000891 -26.120308 -2.361118 -0.018487 0.371845 0.001439 -13.443801 -47.256873 1.067788 175.153421 71.123155 173.326971 -0.287219 -26.452464 0.275590 -0.110212 -0.694020 -0.070919
-31.009761 51.770961 36.816098 -168.172088 -30.011078 -8.632167 -3.994843 14.159804 3.299073 -2.174094 8.202571 1.560877 -2.689118 10.261738 1.906796 -2.159559 8.176553 1.572114 2.206398 19.887606 -0.544762 2.433271 -4.615116 -1.113385 4.041354 -3.068929 -3.843231 2.775503 -22.669094 -0.382479 57.149657 -32.923374 -37.549819 8.880986 6.038763 -9.637029 -12.244588 0.518779 -4.311497 -7.068407 -19.116049 4.413182 -60.538776 -36.186210 55.006934 -1.257265 -5.334235 -3.150627 -23.362225 -27.746856 1.729205 51.559164 87.498879 48.704404 0.036962 -26.248308 -2.424106 -0.029711 0.415762 -0.000647 -13.745813 -47.096868 1.383743 175.073226 71.465897 173.270229 -0.211204 -26.023301 0.259972 -0.173349 -1.027115 -0.096771
